<mxfile host="app.diagrams.net" modified="2023-05-25T15:32:50.324Z" agent="Mozilla/5.0 (Windows NT 10.0; Win64; x64) AppleWebKit/537.36 (KHTML, like Gecko) Chrome/113.0.0.0 Safari/537.36" etag="nbG3O9MvkYpuOywfnDgJ" version="21.3.2" type="github">
  <diagram name="Страница 1" id="1EkjVdphEnnY5ff58mdb">
    <mxGraphModel dx="1434" dy="764" grid="1" gridSize="10" guides="1" tooltips="1" connect="1" arrows="1" fold="1" page="1" pageScale="1" pageWidth="827" pageHeight="1169" math="0" shadow="0">
      <root>
        <mxCell id="0" />
        <mxCell id="1" parent="0" />
        <mxCell id="sipX7vHX_C01fGWG3bS1-4" value="" style="edgeStyle=orthogonalEdgeStyle;rounded=0;orthogonalLoop=1;jettySize=auto;html=1;" edge="1" parent="1" source="sipX7vHX_C01fGWG3bS1-1" target="sipX7vHX_C01fGWG3bS1-3">
          <mxGeometry relative="1" as="geometry" />
        </mxCell>
        <mxCell id="sipX7vHX_C01fGWG3bS1-1" value="Start" style="rounded=1;whiteSpace=wrap;html=1;" vertex="1" parent="1">
          <mxGeometry x="354" width="120" height="60" as="geometry" />
        </mxCell>
        <mxCell id="sipX7vHX_C01fGWG3bS1-6" value="" style="edgeStyle=orthogonalEdgeStyle;rounded=0;orthogonalLoop=1;jettySize=auto;html=1;" edge="1" parent="1" source="sipX7vHX_C01fGWG3bS1-3" target="sipX7vHX_C01fGWG3bS1-5">
          <mxGeometry relative="1" as="geometry" />
        </mxCell>
        <mxCell id="sipX7vHX_C01fGWG3bS1-3" value="numbers [1, 8, 3, 8, 2, 6, 8, 8]&lt;br&gt;index = 0&lt;br&gt;maximum = numbers[index]&lt;br&gt;count_maximal = 0&lt;br&gt;" style="shape=parallelogram;perimeter=parallelogramPerimeter;whiteSpace=wrap;html=1;fixedSize=1;" vertex="1" parent="1">
          <mxGeometry x="313" y="100" width="202" height="80" as="geometry" />
        </mxCell>
        <mxCell id="sipX7vHX_C01fGWG3bS1-10" value="" style="edgeStyle=orthogonalEdgeStyle;rounded=0;orthogonalLoop=1;jettySize=auto;html=1;" edge="1" parent="1" source="sipX7vHX_C01fGWG3bS1-5" target="sipX7vHX_C01fGWG3bS1-9">
          <mxGeometry relative="1" as="geometry" />
        </mxCell>
        <mxCell id="sipX7vHX_C01fGWG3bS1-17" value="" style="edgeStyle=orthogonalEdgeStyle;rounded=0;orthogonalLoop=1;jettySize=auto;html=1;" edge="1" parent="1" source="sipX7vHX_C01fGWG3bS1-5" target="sipX7vHX_C01fGWG3bS1-16">
          <mxGeometry relative="1" as="geometry" />
        </mxCell>
        <mxCell id="sipX7vHX_C01fGWG3bS1-5" value="index &amp;lt; numbers.lenght" style="rhombus;whiteSpace=wrap;html=1;" vertex="1" parent="1">
          <mxGeometry x="321" y="240" width="186" height="80" as="geometry" />
        </mxCell>
        <mxCell id="sipX7vHX_C01fGWG3bS1-12" value="" style="edgeStyle=orthogonalEdgeStyle;rounded=0;orthogonalLoop=1;jettySize=auto;html=1;" edge="1" parent="1" source="sipX7vHX_C01fGWG3bS1-9" target="sipX7vHX_C01fGWG3bS1-11">
          <mxGeometry relative="1" as="geometry" />
        </mxCell>
        <mxCell id="sipX7vHX_C01fGWG3bS1-9" value="count_maximal" style="shape=document;whiteSpace=wrap;html=1;boundedLbl=1;" vertex="1" parent="1">
          <mxGeometry x="540" y="240" width="120" height="80" as="geometry" />
        </mxCell>
        <mxCell id="sipX7vHX_C01fGWG3bS1-11" value="Finish" style="rounded=1;whiteSpace=wrap;html=1;" vertex="1" parent="1">
          <mxGeometry x="690" y="250" width="120" height="60" as="geometry" />
        </mxCell>
        <mxCell id="sipX7vHX_C01fGWG3bS1-13" value="No" style="text;html=1;align=center;verticalAlign=middle;resizable=0;points=[];autosize=1;strokeColor=none;fillColor=none;" vertex="1" parent="1">
          <mxGeometry x="500" y="250" width="40" height="30" as="geometry" />
        </mxCell>
        <mxCell id="sipX7vHX_C01fGWG3bS1-19" value="" style="edgeStyle=orthogonalEdgeStyle;rounded=0;orthogonalLoop=1;jettySize=auto;html=1;" edge="1" parent="1" source="sipX7vHX_C01fGWG3bS1-16" target="sipX7vHX_C01fGWG3bS1-18">
          <mxGeometry relative="1" as="geometry" />
        </mxCell>
        <mxCell id="sipX7vHX_C01fGWG3bS1-27" value="" style="edgeStyle=orthogonalEdgeStyle;rounded=0;orthogonalLoop=1;jettySize=auto;html=1;" edge="1" parent="1" source="sipX7vHX_C01fGWG3bS1-16" target="sipX7vHX_C01fGWG3bS1-26">
          <mxGeometry relative="1" as="geometry" />
        </mxCell>
        <mxCell id="sipX7vHX_C01fGWG3bS1-16" value="numbers[index] &amp;gt; maximum" style="rhombus;whiteSpace=wrap;html=1;" vertex="1" parent="1">
          <mxGeometry x="321" y="350" width="186" height="80" as="geometry" />
        </mxCell>
        <mxCell id="sipX7vHX_C01fGWG3bS1-21" value="" style="edgeStyle=orthogonalEdgeStyle;rounded=0;orthogonalLoop=1;jettySize=auto;html=1;" edge="1" parent="1" source="sipX7vHX_C01fGWG3bS1-18" target="sipX7vHX_C01fGWG3bS1-20">
          <mxGeometry relative="1" as="geometry" />
        </mxCell>
        <mxCell id="sipX7vHX_C01fGWG3bS1-18" value="maximum = numbers[index]&lt;br&gt;count_maximal = 1" style="whiteSpace=wrap;html=1;" vertex="1" parent="1">
          <mxGeometry x="105" y="360" width="170" height="60" as="geometry" />
        </mxCell>
        <mxCell id="sipX7vHX_C01fGWG3bS1-22" value="" style="edgeStyle=orthogonalEdgeStyle;rounded=0;orthogonalLoop=1;jettySize=auto;html=1;" edge="1" parent="1" source="sipX7vHX_C01fGWG3bS1-20" target="sipX7vHX_C01fGWG3bS1-5">
          <mxGeometry relative="1" as="geometry" />
        </mxCell>
        <mxCell id="sipX7vHX_C01fGWG3bS1-20" value="index = index + 1" style="whiteSpace=wrap;html=1;" vertex="1" parent="1">
          <mxGeometry x="130" y="250" width="120" height="60" as="geometry" />
        </mxCell>
        <mxCell id="sipX7vHX_C01fGWG3bS1-23" value="Yes" style="text;html=1;align=center;verticalAlign=middle;resizable=0;points=[];autosize=1;strokeColor=none;fillColor=none;" vertex="1" parent="1">
          <mxGeometry x="275" y="360" width="40" height="30" as="geometry" />
        </mxCell>
        <mxCell id="sipX7vHX_C01fGWG3bS1-32" value="" style="edgeStyle=orthogonalEdgeStyle;rounded=0;orthogonalLoop=1;jettySize=auto;html=1;entryX=0;entryY=0.5;entryDx=0;entryDy=0;exitX=0.5;exitY=1;exitDx=0;exitDy=0;" edge="1" parent="1" source="sipX7vHX_C01fGWG3bS1-26" target="sipX7vHX_C01fGWG3bS1-20">
          <mxGeometry relative="1" as="geometry">
            <mxPoint x="414" y="590" as="targetPoint" />
            <Array as="points">
              <mxPoint x="414" y="670" />
              <mxPoint x="40" y="670" />
              <mxPoint x="40" y="280" />
            </Array>
          </mxGeometry>
        </mxCell>
        <mxCell id="sipX7vHX_C01fGWG3bS1-35" value="" style="edgeStyle=orthogonalEdgeStyle;rounded=0;orthogonalLoop=1;jettySize=auto;html=1;" edge="1" parent="1" source="sipX7vHX_C01fGWG3bS1-26" target="sipX7vHX_C01fGWG3bS1-34">
          <mxGeometry relative="1" as="geometry" />
        </mxCell>
        <mxCell id="sipX7vHX_C01fGWG3bS1-26" value="numbers[index] == maximum" style="rhombus;whiteSpace=wrap;html=1;" vertex="1" parent="1">
          <mxGeometry x="316" y="470" width="195" height="80" as="geometry" />
        </mxCell>
        <mxCell id="sipX7vHX_C01fGWG3bS1-30" value="No" style="text;html=1;align=center;verticalAlign=middle;resizable=0;points=[];autosize=1;strokeColor=none;fillColor=none;" vertex="1" parent="1">
          <mxGeometry x="374" y="430" width="40" height="30" as="geometry" />
        </mxCell>
        <mxCell id="sipX7vHX_C01fGWG3bS1-33" value="No" style="text;html=1;align=center;verticalAlign=middle;resizable=0;points=[];autosize=1;strokeColor=none;fillColor=none;" vertex="1" parent="1">
          <mxGeometry x="374" y="550" width="40" height="30" as="geometry" />
        </mxCell>
        <mxCell id="sipX7vHX_C01fGWG3bS1-37" style="edgeStyle=orthogonalEdgeStyle;rounded=0;orthogonalLoop=1;jettySize=auto;html=1;exitX=0;exitY=0.5;exitDx=0;exitDy=0;" edge="1" parent="1" source="sipX7vHX_C01fGWG3bS1-34">
          <mxGeometry relative="1" as="geometry">
            <mxPoint x="40" y="510" as="targetPoint" />
          </mxGeometry>
        </mxCell>
        <mxCell id="sipX7vHX_C01fGWG3bS1-34" value="count_maximal = count_maximal + 1" style="whiteSpace=wrap;html=1;" vertex="1" parent="1">
          <mxGeometry x="70" y="480" width="215" height="60" as="geometry" />
        </mxCell>
        <mxCell id="sipX7vHX_C01fGWG3bS1-36" value="Yes" style="text;html=1;align=center;verticalAlign=middle;resizable=0;points=[];autosize=1;strokeColor=none;fillColor=none;" vertex="1" parent="1">
          <mxGeometry x="281" y="480" width="40" height="30" as="geometry" />
        </mxCell>
      </root>
    </mxGraphModel>
  </diagram>
</mxfile>
